# xmcd CD database file
#
# Track frame offsets:
#	150
#	44925
#	82940
#	125822
#	169870
#	213000
#
# Disc length: 3407 seconds
#
# Revision: 0
# Processed by: cddbd v1.5.2PL0 Copyright (c) Steve Scherf et al.
# Submitted via: CDex 1.81
#
DISCID=510d4d06
DTITLE=Manhattan Jazz Orchestra - Great Jazz Hits
DYEAR=1990
DGENRE=Jazz
TTITLE0=Take Five
TTITLE1=Comin' Home Baby
TTITLE2=All Blues
TTITLE3=A Night In Tunisia
TTITLE4=Take The "A" Train
TTITLE5=Les Liaisons Dangereuses (No Problem)
EXTD=YEAR: 1990
EXTT0=
EXTT1=
EXTT2=
EXTT3=
EXTT4=
EXTT5=
PLAYORDER=
